# xmcd
#
# Track frame offsets: 
#        150
#        13135
#        30387
#        48370
#        68277
#        81243
#        95353
#        111521
#        129108
#        147645
#        161009
#        173383
#        187861
#        204980
#        221782
#        231233
#        244833
#        258424
#        269240
#        281626
#        294889
#        305731
#
# Disc length: 4254 seconds
#
# Revision: 0
# Processed by: cddbd v1.5.2PL0 Copyright (c) Steve Scherf et al.
# Submitted via: ExactAudioCopy v0.99pb4
#
DISCID=3e109c16
DTITLE=Replacements - Boink!! Box Set Disc 2
DYEAR=2000
DGENRE=Ambient
TTITLE0=Kiss Me on the Bus
TTITLE1=Little Mascara
TTITLE2=Valentine
TTITLE3=Birthday Girl
TTITLE4=Bundle Up
TTITLE5=Red Red Wine
TTITLE6=Empty as Your Heart (PO Box)
TTITLE7=Time is Killing Us
TTITLE8=The Ledge
TTITLE9=IOU
TTITLE10=Nightclub Jitters
TTITLE11=Can't Hardly Wait
TTITLE12=Learn How to Fail
TTITLE13=Valentine
TTITLE14=Skyway
TTITLE15=I Don't Know
TTITLE16=Red Red Wine
TTITLE17=Shooting Dirty Pool
TTITLE18=Cool Cool Water
TTITLE19=Route 66
TTITLE20=Tossin' and Turnin'
TTITLE21=Can't Hardly Wait
EXTD=
EXTT0=
EXTT1=
EXTT2=
EXTT3=
EXTT4=
EXTT5=
EXTT6=
EXTT7=
EXTT8=
EXTT9=
EXTT10=
EXTT11=
EXTT12=
EXTT13=
EXTT14=
EXTT15=
EXTT16=
EXTT17=
EXTT18=
EXTT19=
EXTT20=
EXTT21=
PLAYORDER=
